<svg id="flip-icon" xmlns="http://www.w3.org/2000/svg" viewBox="0 0 11.88 12.33"><defs><style>.cls-1{fill:none;stroke-width:2px;}.cls-1,.cls-2{stroke:#fff;stroke-miterlimit:10;}.cls-2{fill:#fff;}</style></defs><path class="cls-1" d="M257.43,271.69l-2.22-2.26L253,267.16a.62.62,0,0,0-.44-.18.61.61,0,0,0-.45.19l-2.32,2.27-2.33,2.27a.64.64,0,0,0-.19.45.57.57,0,0,0,.17.44l2.21,2.27,2.22,2.26a.62.62,0,0,0,.44.18.66.66,0,0,0,.45-.18l2.32-2.28" transform="translate(-246.27 -265.98)"/><polygon class="cls-2" points="10.23 7.43 7.87 7.89 9.72 9.81 10.23 7.43"/></svg>